<svg xmlns="http://www.w3.org/2000/svg" width="512" height="512" viewBox="0 0 512 512"><title>off-circle-outline</title><g id="container" stroke="none" stroke-width="1" fill="none" fill-rule="evenodd"><g id="off-circle-outline" transform="translate(48.000000, 48.000000)" fill="#000000" fill-rule="nonzero"><path id="circle" d="M208,416 C93.31,416 0,322.69 0,208 C0,93.31 93.31,0 208,0 C322.69,0 416,93.31 416,208 C416,322.69 322.69,416 208,416 Z M208,32 C111,32 32,111 32,208 C32,305 111,384 208,384 C305,384 384,305.05 384,208 C384,110.95 305.05,32 208,32 Z"></path><path id="line" d="M304,321.000027 C299.48947,321.008335 295.186838,319.10413 292.16,315.76 L100.16,105.76 C94.3454779,99.205668 94.8840964,89.1938036 101.368244,83.3011157 C107.852391,77.4084279 117.869993,77.8269697 123.84,84.24 L315.84,294.24 C320.098351,298.926384 321.19231,305.683215 318.630233,311.473855 C316.068157,317.264495 310.33212,321.000027 304,321.000027 Z"></path></g></g></svg>